<?xml version="1.0" encoding="utf-8"?>
<!-- Generator: Adobe Illustrator 21.1.0, SVG Export Plug-In . SVG Version: 6.00 Build 0)  -->
<svg version="1.1" id="Lag_1" xmlns="http://www.w3.org/2000/svg" xmlns:xlink="http://www.w3.org/1999/xlink" x="0px" y="0px"
	 viewBox="0 0 141.7 141.7" style="enable-background:new 0 0 141.7 141.7;" xml:space="preserve">
<style type="text/css">
	.st0{fill:#FFFFFF;}
	.st1{fill:#123274;}
	.st2{fill:#31B7BC;}
</style>
<g>
	<circle class="st0" cx="70.9" cy="70.9" r="49.6"/>
	<path class="st1" d="M70.9,21.3c27.4,0,49.6,22.2,49.6,49.6s-22.2,49.6-49.6,49.6S21.3,98.3,21.3,70.9S43.5,21.3,70.9,21.3
		 M70.9,18.3c-29,0-52.6,23.6-52.6,52.6s23.6,52.6,52.6,52.6s52.6-23.6,52.6-52.6S99.9,18.3,70.9,18.3L70.9,18.3z"/>
</g>
<path class="st1" d="M70.9,23.6c-26,0-47.2,21.2-47.2,47.2s21.2,47.2,47.2,47.2c26,0,47.2-21.2,47.2-47.2S96.9,23.6,70.9,23.6z"/>
<g>
	<g>
		<path class="st0" d="M42.8,87.5l0.4,0.8l-7,3.8l-0.5-0.9l5.1-2.7l0,0L38,88.9l-0.1-0.2l1.8-2.2l0,0l-5,2.8l-0.5-0.9l7-3.8l0.4,0.8
			l-2,2.5L42.8,87.5z"/>
		<path class="st0" d="M45.1,90.8l0.7,0.8l-5.3,6.2l-0.6-0.8l1.2-1.3l-0.9-1.2l-1.6,0.9l-0.6-0.8L45.1,90.8z M41.7,95l2.3-2.5l0,0
			l-3,1.7L41.7,95z"/>
		<path class="st0" d="M47.9,94l0.6,0.6c1.2,1.1,0.8,2.3,0.1,3.1c-0.5,0.6-1.1,0.8-1.8,0.7C47,99,46.6,99.9,46,101l-0.8,1.5
			l-0.8-0.7l0.7-1.2c0.8-1.4,1.1-2.1,0.6-2.4l-2.4,2.7l-0.8-0.7L47.9,94z M46.4,97.3c0.4,0.4,0.9,0.3,1.5-0.3
			c0.6-0.7,0.6-1.1,0.2-1.6L46.4,97.3L46.4,97.3z"/>
		<path class="st0" d="M52,97.5l0.8,0.6l-4.5,6.6l-0.8-0.6L52,97.5z"/>
		<path class="st0" d="M54.8,99.3l0.7,0.4l-0.6,5.2l0,0l2.2-4.4l0.8,0.4l-3.6,7.2l-0.8-0.4l0.6-5.3l0,0l-2.2,4.5l-0.8-0.4L54.8,99.3
			z"/>
		<path class="st0" d="M60.1,101.8l2.7,0.8l-0.3,0.9l-1.7-0.5l-0.7,2.3l1.6,0.5l-0.3,0.9l-1.6-0.5l-0.8,2.6l1.8,0.6l-0.3,0.9
			l-2.8-0.9L60.1,101.8z"/>
		<path class="st0" d="M68.9,103.6l0.9,0c1.7,0,2.1,1.3,2.1,2.3c0,0.8-0.3,1.3-0.9,1.7c0.5,0.4,0.8,1.3,1,2.5l0.3,1.7l-1.1,0
			l-0.3-1.4c-0.3-1.6-0.6-2.3-1.1-2.2l-0.1,3.6l-1,0L68.9,103.6z M69.9,107.1c0.6,0,0.9-0.4,0.9-1.2c0-0.9-0.3-1.3-0.9-1.3
			L69.9,107.1L69.9,107.1z"/>
		<path class="st0" d="M74.2,103.5l2.8-0.4l0.1,1l-1.8,0.3l0.3,2.4l1.6-0.2l0.1,1l-1.6,0.2l0.4,2.7l1.9-0.3l0.1,1l-2.9,0.4
			L74.2,103.5z"/>
		<path class="st0" d="M81,109.1c0.4,0.2,0.7,0.3,1,0.2c0.4-0.1,0.6-0.6,0.5-1c-0.4-1.2-2.5-2.4-3-4c-0.3-1,0.1-2,1-2.2
			c0.3-0.1,0.5-0.1,0.9,0l0.3,0.9c-0.3-0.1-0.5-0.1-0.8,0c-0.5,0.1-0.7,0.5-0.5,1c0.4,1.2,2.5,2.4,3,4c0.3,1-0.1,2-1.1,2.2
			c-0.3,0.1-0.7,0.1-1.1,0L81,109.1z"/>
		<path class="st0" d="M83.5,101.2l2.6-1.2l0.4,0.9l-1.7,0.8l1,2.2l1.5-0.7l0.4,0.9l-1.5,0.7l1.2,2.5l1.7-0.8l0.4,0.9l-2.7,1.2
			L83.5,101.2z"/>
		<path class="st0" d="M88.9,98.2l0.9-0.6l5.8,5.9l-0.8,0.6l-1.2-1.3l-1.2,0.8l0.7,1.6l-0.8,0.6L88.9,98.2z M92.8,102l-2.3-2.5l0,0
			l1.4,3.1L92.8,102z"/>
		<path class="st0" d="M92.3,95.7l0.6-0.6c1.2-1.1,2.4-0.6,3.1,0.2c0.5,0.6,0.7,1.2,0.6,1.8c0.6-0.1,1.4,0.3,2.5,1l1.4,0.9l-0.8,0.7
			L98.5,99c-1.3-0.9-2-1.2-2.4-0.8l2.5,2.6l-0.7,0.7L92.3,95.7z M95.5,97.5c0.4-0.4,0.3-0.9-0.2-1.5c-0.6-0.6-1.1-0.7-1.6-0.3
			L95.5,97.5L95.5,97.5z"/>
		<path class="st0" d="M104,94.2c0,0.5-0.1,0.9-0.4,1.3c-0.8,1.1-2.5,0.8-4.5-0.8c-1.8-1.4-2.9-3-2-4.3c0.2-0.2,0.6-0.5,1-0.6
			l0.8,0.6c-0.4,0.1-0.8,0.2-1,0.5c-0.6,0.7,0.2,1.6,1.8,2.9c1.7,1.3,2.7,1.7,3.2,1c0.2-0.3,0.3-0.5,0.2-1.2L104,94.2z"/>
		<path class="st0" d="M98.9,88l0.5-0.9l3.1,1.7l0.7-1.3l-3.1-1.7l0.5-0.9l7.1,3.8l-0.5,0.9l-3.1-1.7l-0.7,1.3l3.1,1.7l-0.5,0.9
			L98.9,88z"/>
	</g>
</g>
<g>
	<path class="st0" d="M40.4,44.1l0.7-0.8l6,5.4l-0.7,0.8L40.4,44.1z"/>
	<path class="st0" d="M43.7,40.7l0.6-0.5l4.5,2.7l0,0L45.7,39l0.7-0.6l5.1,6.2l-0.6,0.5l-4.5-2.7l0,0l3.2,3.9l-0.7,0.6L43.7,40.7z"
		/>
	<path class="st0" d="M52.7,42.3c0.4,0.1,0.7,0.1,1-0.1c0.4-0.2,0.5-0.7,0.3-1.1c-0.6-1.1-3-1.8-3.8-3.2c-0.5-0.9-0.3-1.9,0.5-2.4
		c0.2-0.1,0.5-0.2,0.9-0.2l0.5,0.8c-0.4,0-0.5,0-0.7,0.1c-0.4,0.3-0.5,0.6-0.3,1.1c0.6,1.1,3,1.7,3.8,3.2c0.5,0.9,0.3,1.9-0.5,2.4
		c-0.3,0.2-0.6,0.3-1,0.2L52.7,42.3z"/>
	<path class="st0" d="M55.5,34.4l-1.1,0.5L54,33.9l3.3-1.3l0.4,0.9L56.5,34l2.6,6.5l-1,0.4L55.5,34.4z"/>
	<path class="st0" d="M60.2,31.8l1-0.3l2,7.8l-1,0.3L60.2,31.8z"/>
	<path class="st0" d="M65.3,31.7l-1.2,0.2l-0.1-1l3.5-0.4l0.1,1l-1.2,0.2l0.9,7l-1,0.1L65.3,31.7z"/>
	<path class="st0" d="M71.6,30.3l-0.2,6c0,0.7,0.2,1.1,0.7,1.2c0.4,0,0.8-0.3,0.8-1.1l0.2-6.1l1,0l-0.2,5.9
		c-0.1,1.7-1.2,2.1-1.9,2.1c-1,0-1.8-0.9-1.7-2.2l0.2-6L71.6,30.3z"/>
	<path class="st0" d="M78.3,32l-1.2-0.2l0.2-0.9l3.4,0.7l-0.2,0.9l-1.2-0.2l-1.4,6.9l-1-0.2L78.3,32z"/>
	<path class="st0" d="M83.8,32.4l2.7,1l-0.3,0.9l-1.7-0.6l-0.8,2.2l1.6,0.6l-0.3,0.9l-1.6-0.6l-1,2.6l1.8,0.7l-0.3,0.9l-2.8-1
		L83.8,32.4z"/>
	<path class="st0" d="M95.6,38.6c1.1,0.9,0.5,2.8-0.8,4.6c-1.7,2.2-3.3,2.6-4.2,2c-1-0.7-0.8-2.5,0.8-4.6
		C92.6,39,94.3,37.6,95.6,38.6z M91.2,44.4c0.5,0.4,1.6-0.3,2.8-1.9c1.2-1.6,1.6-2.7,1.1-3.2c-0.7-0.5-1.9,0.7-2.8,1.9
		C91,42.8,90.6,43.9,91.2,44.4z"/>
	<path class="st0" d="M99.8,42.4l1.7,1.8l-0.7,0.7l-1-1.1L98,45.4l0.9,1l-0.7,0.7l-0.9-1l-2.7,2.5l-0.7-0.8L99.8,42.4z"/>
</g>
<path class="st2" d="M36.7,83.7c-0.3,0-0.5-0.2-0.6-0.4c-2.5-7.1-2.8-14.7-0.9-22c1.2-4.4,3.1-8.4,5.7-12c0.2-0.3,0.6-0.4,0.9-0.1
	c0.3,0.2,0.4,0.6,0.1,0.9c-2.5,3.5-4.4,7.4-5.5,11.6c-1.9,7-1.6,14.4,0.9,21.2c0.1,0.3-0.1,0.7-0.4,0.8
	C36.9,83.7,36.8,83.7,36.7,83.7z"/>
<path class="st2" d="M104.9,83.8c-0.1,0-0.1,0-0.2,0c-0.3-0.1-0.5-0.5-0.4-0.8c2.5-6.8,2.7-14.2,0.9-21.2c-1.1-4.2-3-8.1-5.5-11.6
	c-0.2-0.3-0.1-0.7,0.1-0.9c0.3-0.2,0.7-0.1,0.9,0.1c2.6,3.6,4.5,7.7,5.7,12c2,7.3,1.6,14.9-0.9,22C105.4,83.6,105.2,83.8,104.9,83.8
	z"/>
<path class="st0" d="M45,86.5h51.7L82.6,63c0.7-0.1,1.4-0.3,2.1-0.4c0.2,0,0.3-0.1,0.5-0.1c0.2-0.1,0.4-0.1,0.6-0.2
	c0.2-0.1,0.5-0.2,0.7-0.2c0.1-0.1,0.3-0.1,0.4-0.2c0.3-0.1,0.6-0.2,0.9-0.4c0.1,0,0.2-0.1,0.3-0.1c0.4-0.2,0.7-0.3,1.1-0.5
	c0.1,0,0.1-0.1,0.2-0.1c0.4-0.2,0.8-0.4,1.3-0.7c0,0,0,0,0.1,0l0.8-0.5l0,0l0,0l-0.8-0.5c-0.5-0.3-1.1-0.6-1.6-0.8
	c-0.1,0-0.2-0.1-0.3-0.1c-0.5-0.2-0.9-0.4-1.4-0.6c-0.1,0-0.1-0.1-0.2-0.1c-0.5-0.2-1-0.4-1.5-0.5c0,0,0,0,0,0
	c-2.5-0.8-5-1.1-7.4-0.9l-7.7-12.8L57.6,65.3c-0.1,0-0.2,0-0.3,0.1c0,0,0,0-0.1,0c-2.3,0.4-4.5,1.3-6.6,2.6c-1.2-0.8-2.4-1.8-3.6-3
	l-0.9-0.9l0,0l0,0l0,1.2c0,1,0,4.9,0,6.6l0,1.3l0,0v0l0.9-0.9c1.1-1.2,2.3-2.2,3.5-3.1c1.2,0.7,2.3,1.3,3.5,1.8L45,86.5z M47.7,84.7
	h46.2l0.2,0.4H47.5L47.7,84.7z M48.2,84l0.3-0.5h44.8l0.3,0.5H48.2z M57.3,75.5h-4.1l0.4-0.6h3.8l0,0.4
	C57.3,75.3,57.3,75.4,57.3,75.5z M57.3,76.1c0,0.2,0,0.4,0,0.6h-4.9l0.3-0.6H57.3z M62.8,78.5c5.4-3.3,11.5-3.3,18.1,0.1
	C74.4,81.9,68.3,81.9,62.8,78.5z M60.9,79.8h2c0.3,0.2,0.7,0.4,1,0.5h-3.6C60.5,80.2,60.7,80,60.9,79.8z M61.9,77.8h-0.3
	c-0.2-0.1-0.4-0.3-0.6-0.4h1.6C62.4,77.5,62.2,77.6,61.9,77.8z M60.9,78.5c-0.8,0.6-1.7,1.3-2.5,2.1c0-1.3,0-2.9,0-4.1
	C59.2,77.2,60,77.9,60.9,78.5z M59.5,81h6.1c0.5,0.2,1,0.4,1.6,0.5H59C59.1,81.4,59.3,81.2,59.5,81z M63.9,76.7h-3.6
	c-0.2-0.2-0.5-0.4-0.7-0.6h5.6C64.7,76.3,64.3,76.5,63.9,76.7z M57.3,77.4c0,0.2,0,0.4,0,0.6h-5.6l0.3-0.6H57.3z M57.3,78.6
	c0,0.2,0,0.4,0,0.5H51l0.3-0.5H57.3z M57.3,79.8c0,0.2,0,0.3,0,0.5h-7l0.3-0.5H57.3z M57.3,81c0,0.2,0,0.3,0,0.5h-7.7l0.3-0.5H57.3z
	 M57.4,82.3l0,0.5h-8.5l0.3-0.5H57.4z M57.8,82.7l0.5-0.5h34.2l0.3,0.5H57.8z M76,81.5c0.6-0.1,1.1-0.3,1.7-0.5v0h14l0.3,0.5H76z
	 M79.6,80.3c0.4-0.2,0.7-0.3,1.1-0.5H91l0.3,0.5H79.6z M82.1,79.1c0,0,0.1,0,0.1-0.1l0.8-0.5h7.2l0.3,0.5H82.1z M81.8,77.9
	c-0.4-0.2-0.7-0.4-1.1-0.6h8.8l0.3,0.6H81.8z M79.3,76.7c-0.5-0.2-1-0.4-1.5-0.6h11l0.3,0.6H79.3z M75.7,75.5c-3-0.7-5.8-0.7-8.6,0
	h-8.2c-0.2-0.2-0.4-0.4-0.6-0.6l0,0h29.8l0.4,0.6H75.7z M57.6,74.3L57.4,74l0,0.3h-3.4l0.4-0.6h33l0.4,0.6H57.6z M54.7,73.1l0.4-0.6
	h31.6l0.4,0.6H54.7z M58.7,66.3c3.5-0.3,7.1,0.5,11,2.5c-4.8,2.4-9.3,3.1-13.6,1.9L58.7,66.3z M64.3,71.9c0.8-0.2,1.5-0.4,2.3-0.7
	h19.3l0.4,0.7H64.3z M68.1,70.7c0.5-0.2,1-0.4,1.5-0.7h15.6l0.4,0.7H68.1z M70.6,69.5c0.1-0.1,0.3-0.1,0.4-0.2l0.8-0.5l0,0h12.5
	l0.4,0.7H70.6z M70.9,68.2c-0.5-0.3-0.9-0.5-1.4-0.7h14.1l0.4,0.7H70.9z M68.5,67c-0.6-0.3-1.3-0.5-1.9-0.7h16.3l0.4,0.7H68.5z
	 M67.5,62.6h8.1c1.8,0.5,3.6,0.7,5.4,0.6l0.1,0.2H66.7l0.1-0.1C67.1,63.1,67.3,62.8,67.5,62.6z M71,58.6h-1.2
	c-0.4-0.3-0.8-0.6-1.1-0.9h3.9C72.1,58,71.6,58.3,71,58.6z M70.4,58.9C70.4,58.9,70.4,59,70.4,58.9c-0.1,0-0.1,0-0.1,0H70.4z
	 M69.5,59.6c-0.8,0.6-1.7,1.3-2.5,2.1v-4.1C67.8,58.3,68.6,59,69.5,59.6z M70.4,60.2c0.4,0.3,0.8,0.5,1.3,0.7h-2.3
	C69.7,60.7,70.1,60.5,70.4,60.2z M71.4,59.6c2-1.2,4-2,6.1-2.3c0.3,0.6,0.7,1.2,1.2,1.9l1.8,2.9C77.3,62.2,74.3,61.3,71.4,59.6z
	 M73.4,57.4h-5.1c-0.3-0.3-0.7-0.6-1-0.9h8.8C75.2,56.7,74.3,57,73.4,57.4z M68.9,61.4h3.5c0.6,0.3,1.3,0.6,1.9,0.8H68
	C68.3,61.9,68.6,61.6,68.9,61.4z M67,56.2c-0.1-0.1-0.1-0.1-0.2-0.2l-0.7-0.7h10.3l0.5,0.9H67z M72.5,48.9h-3.5l0.6-1h2.2L72.5,48.9
	z M72.7,49.1l0.6,1h-4.9l0.6-1H72.7z M73.4,50.3l0.6,1h-6.3l0.6-1H73.4z M74.1,51.6l0.6,1h-7.8l0.6-1H74.1z M74.9,52.8l0.6,0.9h-9.2
	l0.6-0.9H74.9z M75.6,54l0.6,0.9H65.5L66,54H75.6z M65.9,55.2l0,0.9h-1.2l0.5-0.9H65.9z M65.9,56.5l0,0.9H64l0.5-0.9H65.9z
	 M65.9,57.7l0,0.9h-2.6l0.5-0.9H65.9z M65.9,58.9l0,0.8h-3.3l0.5-0.8H65.9z M65.9,60.2l0,0.8h-4l0.5-0.8H65.9z M65.9,61.4l0,0.8
	h-4.8l0.5-0.8H65.9z M65.9,62.6l0,0.8h-5.5l0.5-0.8H65.9z M65.9,63.8l0,0.4l0.4-0.4h15.1l0.5,0.8H59.7l0.5-0.8H65.9z M82.2,65.1
	l0.4,0.8H65c-1.9-0.5-3.8-0.7-5.6-0.7l0.1-0.1H82.2z M56.5,71.9h-1.1l0.2-0.3C55.8,71.7,56.2,71.8,56.5,71.9z M71.8,47.7h-2l1-1.7
	L71.8,47.7z"/>
</svg>
