<svg id="Lag_1" data-name="Lag 1" xmlns="http://www.w3.org/2000/svg" viewBox="0 0 105.21 105.21"><defs><style>.cls-1{fill:#fff;}.cls-2{fill:#123274;}.cls-3{fill:#31b7bc;}</style></defs><title>HI logo farger norsk</title><circle class="cls-1" cx="52.61" cy="52.61" r="49.61"/><path class="cls-2" d="M70.87,21.26A49.61,49.61,0,1,1,21.26,70.87,49.61,49.61,0,0,1,70.87,21.26m0-3a52.61,52.61,0,1,0,52.61,52.61A52.67,52.67,0,0,0,70.87,18.26Z" transform="translate(-18.26 -18.26)"/><path class="cls-2" d="M70.87,23.63A47.24,47.24,0,1,0,118.1,70.87,47.29,47.29,0,0,0,70.87,23.63Z" transform="translate(-18.26 -18.26)"/><path class="cls-1" d="M34.4,53.23l.49-.91L38,54l.72-1.34L35.61,51l.49-.91,7.06,3.8-.49.91L39.56,53.1l-.72,1.34,3.11,1.67-.49.91Z" transform="translate(-18.26 -18.26)"/><path class="cls-1" d="M39.25,45.51l.68-.83,7.18,4-.63.77-1.56-.91L44,49.67,45.15,51l-.63.77ZM44.06,48l-3-1.7,0,0,2.24,2.57Z" transform="translate(-18.26 -18.26)"/><path class="cls-1" d="M43.11,41.36l.82-.7L48,44.27l0,0-2.95-4.58.82-.7,4.17,7.13-.54.46Z" transform="translate(-18.26 -18.26)"/><path class="cls-1" d="M49.15,36.68l2.16-1.25.48.83L50.52,37l1.19,2.07,1.18-.68.48.83-1.18.68,1.85,3.21-.89.52Z" transform="translate(-18.26 -18.26)"/><path class="cls-1" d="M57,32.7c1.34-.49,2.68,1.07,3.43,3.13,1,2.64.43,4.22-.61,4.6s-2.52-.63-3.43-3.13C55.77,35.46,55.57,33.24,57,32.7Zm2.5,6.83c.62-.23.59-1.47-.09-3.33S58,33.37,57.37,33.6s-.4,2,.09,3.33C58.15,38.82,58.9,39.76,59.55,39.52Z" transform="translate(-18.26 -18.26)"/><path class="cls-1" d="M63.36,31l.86-.13a2,2,0,0,1,2.42,1.88,1.94,1.94,0,0,1-.56,1.82,4.39,4.39,0,0,1,1.45,2.25l.61,1.57-1.07.16-.52-1.32c-.59-1.5-.93-2.16-1.51-2l.54,3.55-1,.16ZM65,34.31c.56-.08.79-.54.67-1.33s-.48-1.23-1.1-1.14l.38,2.48Z" transform="translate(-18.26 -18.26)"/><path class="cls-1" d="M70.33,37.09a1.36,1.36,0,0,0,.89.46.78.78,0,0,0,.8-.76c0-1.24-1.66-3.07-1.63-4.72a1.67,1.67,0,0,1,1.67-1.8,1.89,1.89,0,0,1,.86.23l0,1a1.33,1.33,0,0,0-.71-.27.69.69,0,0,0-.8.75c0,1.27,1.66,3,1.63,4.72a1.68,1.68,0,0,1-1.7,1.81,1.85,1.85,0,0,1-1-.33Z" transform="translate(-18.26 -18.26)"/><path class="cls-1" d="M77.22,30.83l1,.2L76.72,38.9l-1-.2Zm.3,4.08,1.86-3.66,1,.2-2,3.51.75,4.42-1-.2Z" transform="translate(-18.26 -18.26)"/><path class="cls-1" d="M84.45,32.65l.78.31L85,38.21h0l1.85-4.58.88.35-3,7.43L84,41.11l.22-5.29h0l-1.87,4.63-.88-.35Z" transform="translate(-18.26 -18.26)"/><path class="cls-1" d="M91.69,36.08l.88.54-4.18,6.84-.88-.54Z" transform="translate(-18.26 -18.26)"/><path class="cls-1" d="M96.21,39.15l.63.55-1.91,4.89,0,0,3.25-3.73.71.62-5.26,6L93,47,95,42.07l0,0-3.28,3.77-.71-.62Z" transform="translate(-18.26 -18.26)"/><path class="cls-1" d="M98.3,52.55a2.49,2.49,0,0,1-1.24-.84c-1-1.27-.43-3,1.67-4.59s3.88-1.72,4.81-.49A2.63,2.63,0,0,1,104,48.2l-.88.67a2.21,2.21,0,0,0-.28-1.66c-.65-.85-1.82-.55-3.5.73s-2.21,2.29-1.52,3.2a2.11,2.11,0,0,0,.25.26l2-1.49-.43-.56.76-.58,1.05,1.38Z" transform="translate(-18.26 -18.26)"/><path class="cls-1" d="M100.48,54.45a1.37,1.37,0,0,0,0,1,.78.78,0,0,0,1,.34c1.1-.56,1.92-2.92,3.39-3.66a1.67,1.67,0,0,1,2.38.62,1.92,1.92,0,0,1,.2.87l-.87.44a1.34,1.34,0,0,0-.1-.75.69.69,0,0,0-1-.35c-1.13.58-1.89,2.9-3.39,3.66a1.68,1.68,0,0,1-2.4-.64,1.83,1.83,0,0,1-.18-1.05Z" transform="translate(-18.26 -18.26)"/><path class="cls-1" d="M45.84,91.76l.67.78-6.05,5.24L39.78,97Z" transform="translate(-18.26 -18.26)"/><path class="cls-1" d="M48.7,94.86l.65.54-1.77,4.94h0l3.14-3.81.73.61-5.09,6.17-.65-.54,1.8-5h0l-3.17,3.84-.73-.61Z" transform="translate(-18.26 -18.26)"/><path class="cls-1" d="M50.54,104.6a1.38,1.38,0,0,0,.57.83.78.78,0,0,0,1.06-.3c.6-1.08,0-3.5.76-4.93a1.66,1.66,0,0,1,2.31-.8,1.92,1.92,0,0,1,.65.61l-.47.85a1.34,1.34,0,0,0-.5-.57.69.69,0,0,0-1.05.29c-.62,1.11.05,3.46-.76,4.93a1.67,1.67,0,0,1-2.34.8,1.86,1.86,0,0,1-.74-.77Z" transform="translate(-18.26 -18.26)"/><path class="cls-1" d="M59,102.32l-1.16-.42.32-.9,3.29,1.2-.32.9L60,102.67l-2.38,6.64-1-.35Z" transform="translate(-18.26 -18.26)"/><path class="cls-1" d="M64,102.82l1,.21-1.59,7.86-1-.21Z" transform="translate(-18.26 -18.26)"/><path class="cls-1" d="M68.84,104.48l-1.23-.07,0-1,3.5.18,0,1-1.23-.07-.35,7.06-1-.05Z" transform="translate(-18.26 -18.26)"/><path class="cls-1" d="M74.66,103.41l.82,6c.09.68.4,1.1.9,1s.7-.42.6-1.18l-.82-6,1-.14L78,109a1.81,1.81,0,1,1-3.52.56l-.82-6Z" transform="translate(-18.26 -18.26)"/><path class="cls-1" d="M81.1,103l-1.17.38-.3-.91,3.32-1.09.3.91-1.17.38,2.22,6.71-1,.32Z" transform="translate(-18.26 -18.26)"/><path class="cls-1" d="M86.35,100.9l-1.09.58-.45-.85L87.9,99l.45.85-1.09.58,3.3,6.25-.91.48Z" transform="translate(-18.26 -18.26)"/><path class="cls-1" d="M90.06,97.57l2.24-1.76.59.76-1.43,1.12,1.48,1.9,1.31-1,.59.76-1.31,1,1.69,2.16,1.51-1.18.59.76L95,103.9Z" transform="translate(-18.26 -18.26)"/><path class="cls-1" d="M95.83,93.71l-.82.92L94.29,94l2.32-2.61.72.64-.82.92,5.27,4.71-.68.77Z" transform="translate(-18.26 -18.26)"/><path class="cls-3" d="M41,92.15a.65.65,0,0,1-.53-.28,37,37,0,0,1-4.16-34.1.65.65,0,0,1,1.21.46,35.69,35.69,0,0,0,4,32.9.65.65,0,0,1-.53,1Z" transform="translate(-18.26 -18.26)"/><path class="cls-3" d="M100.6,92.15a.65.65,0,0,1-.53-1,35.69,35.69,0,0,0,4-32.9.65.65,0,1,1,1.21-.46,37,37,0,0,1-4.16,34.1A.65.65,0,0,1,100.6,92.15Z" transform="translate(-18.26 -18.26)"/><path class="cls-1" d="M45,86.54H96.65L82.61,63a19.85,19.85,0,0,0,2.14-.44l.46-.12.57-.17.74-.24L87,61.9l.93-.36.31-.13q.55-.24,1.1-.51l.18-.08c.42-.21.84-.43,1.27-.67l.06,0,.83-.46h0l-.83-.46c-.53-.29-1.06-.56-1.59-.82l-.27-.12q-.68-.32-1.36-.59l-.2-.08q-.76-.3-1.52-.54h0a18.86,18.86,0,0,0-7.36-.93L70.82,43.27,57.64,65.33l-.19,0q-.67.11-1.34.28l-.6.16c-.39.11-.78.24-1.16.38l-.73.29-.72.33q-.54.26-1.08.56l-.63.37c-.18.11-.36.2-.53.31a25.55,25.55,0,0,1-3.57-3l-.9-.89v0h0l0,1.24c0,1,0,4.94,0,6.62v1.3h0l.91-.95a24.12,24.12,0,0,1,3.54-3.07,19.75,19.75,0,0,0,3.53,1.8Zm2.72-1.81H93.94l.24.41H47.45Zm.46-.78.27-.45H93.2l.27.45Zm9.19-8.46H53.21l.35-.59h3.79v.37C57.35,75.33,57.35,75.41,57.35,75.49Zm0,.64c0,.18,0,.37,0,.57H52.49l.34-.57Zm5.45,2.38c5.41-3.33,11.46-3.31,18.06.07C74.39,81.89,68.34,81.86,62.8,78.51Zm-1.87,1.31h2c.33.18.66.35,1,.51H60.3Zm1-2h-.25l-.6-.43h1.57Zm-1.06.73a24.76,24.76,0,0,0-2.48,2.09c0-1.3,0-2.95,0-4.11A26.3,26.3,0,0,0,60.88,78.52ZM59.49,81H65.6c.52.19,1,.35,1.57.49H59Zm4.38-4.34H60.25l-.68-.57h5.58C64.72,76.3,64.3,76.49,63.87,76.7Zm-6.53.66c0,.18,0,.36,0,.55H51.77l.33-.55Zm0,1.23q0,.27,0,.53H51l.32-.53Zm0,1.23q0,.26,0,.51h-7l.31-.51Zm0,1.23c0,.17,0,.34,0,.49H49.6L49.9,81Zm0,1.23v.47H48.88l.28-.47Zm.43.47.45-.47H92.47l.28.47ZM76,81.54q.85-.21,1.71-.5h14l.29.49Zm3.58-1.21q.56-.24,1.12-.51H91l.31.51Zm2.47-1.21.15-.08.82-.46h7.22l.32.53Zm-.26-1.21c-.36-.19-.71-.38-1.06-.55h8.77l.33.55ZM79.31,76.7c-.5-.21-1-.4-1.49-.57h11l.34.57Zm-3.64-1.21a17.31,17.31,0,0,0-8.56,0H58.87l-.62-.59H88.07l.35.59Zm-18-1.21L57.36,74v.26H53.93l.37-.61h33l.37.61Zm-3-1.21.38-.63H86.6l.38.63Zm1.45-2.42,2.6-4.36a20,20,0,0,1,11,2.47C64.91,71.21,60.37,71.83,56.1,70.65Zm8.08,1.21a21.4,21.4,0,0,0,2.39-.65h19.3l.39.65ZM68,70.66c.5-.21,1-.43,1.51-.67H85.13l.4.67Zm2.57-1.21.44-.23.83-.46H84.4l.41.69Zm.32-1.21c-.46-.25-.92-.49-1.37-.71H83.67l.42.71ZM68.45,67c-.62-.27-1.24-.52-1.85-.73H82.93l.44.73Zm-.91-4.42h8.14a16.87,16.87,0,0,0,5.38.56l.14.23H66.75l.07-.08C67.06,63.08,67.3,62.85,67.54,62.62Zm3.5-4h-1.2c-.38-.28-.75-.56-1.13-.87h3.92C72.09,58,71.56,58.25,71,58.57Zm-.59.36-.06,0,0,0Zm-1,.68A24.75,24.75,0,0,0,67,61.69v-4.1A26.35,26.35,0,0,0,69.45,59.61Zm.94.63c.42.27.84.51,1.26.75H69.39C69.72,60.73,70.06,60.48,70.39,60.24Zm1-.64a16.43,16.43,0,0,1,6.14-2.29c.34.55.74,1.2,1.17,1.88l1.75,2.94A16.62,16.62,0,0,1,71.37,59.6Zm2-2.24h-5.1q-.5-.43-1-.89h8.81A16.87,16.87,0,0,0,73.41,57.36Zm-4.5,4h3.53a18.55,18.55,0,0,0,1.91.81H68Q68.44,61.77,68.91,61.39ZM67,56.15,66.81,56l-.75-.74H76.33l.54.91Zm5.55-7.25H69.09l.61-1h2.23Zm.12.2.6,1h-4.9l.6-1Zm.73,1.23.59,1H67.65l.59-1Zm.73,1.23.58,1H66.92l.58-1Zm.73,1.23.57.95H66.2l.57-.95ZM75.6,54l.55.93H65.48L66,54Zm-9.68,1.23v.91H64.76l.54-.91Zm0,1.23v.89H64l.53-.89Zm0,1.23v.87h-2.6l.52-.87Zm0,1.23v.85H62.59l.51-.85Zm0,1.23V61h-4l.5-.83Zm0,1.23v.81H61.15l.48-.81Zm0,1.23v.79H60.43l.47-.79Zm0,1.23v.43l.41-.43H81.47l.46.77H59.71l.46-.77ZM82.2,65.07l.45.75H65a18.71,18.71,0,0,0-5.66-.66l.06-.09ZM55.53,71.61c.36.11.72.17,1.07.25H55.38ZM71.82,47.69h-2l1-1.68Z" transform="translate(-18.26 -18.26)"/></svg>